<svg width="102" height="102" viewBox="0 0 102 102" fill="none" xmlns="http://www.w3.org/2000/svg">
<rect x="1.41421" y="51" width="70.1249" height="70.1249" rx="19" transform="rotate(-45 1.41421 51)" stroke="white" stroke-width="2"/>
<g clip-path="url(#clip0_1_50621)">
<path d="M70.1823 37.6583C69.9641 37.0964 69.491 36.6888 68.9168 36.568C68.33 36.4441 67.7169 36.6333 67.2769 37.0734L63.1742 41.176L61.1709 39.1727L65.5344 34.8092C65.9886 34.3549 66.1836 33.7223 66.0562 33.1169C65.9316 32.525 65.5111 32.0373 64.9317 31.8123C61.1236 30.333 56.7968 31.2436 53.9085 34.1318C52.3878 35.6525 51.395 37.5726 51.0363 39.6857C50.9597 40.0452 50.8854 40.4269 50.8069 40.8306C50.3481 43.1887 49.7772 46.1235 48.1031 47.7974L33.1146 62.786C31.2639 64.6367 31.2639 67.6483 33.1146 69.4991C34.0401 70.4245 35.2557 70.8872 36.4712 70.8872C37.6868 70.8872 38.9024 70.4245 39.8278 69.4991L54.8162 54.5106C56.4902 52.8366 59.425 52.2658 61.7831 51.8069C62.1869 51.7284 62.5685 51.6541 62.928 51.5775C65.0412 51.2188 66.9613 50.2259 68.482 48.7052C68.9307 48.2565 69.0606 47.6474 68.8747 47.1059C70.9111 44.4085 71.4179 40.8396 70.1823 37.6583ZM68.3754 38.1718C68.4439 38.1034 68.5246 38.0728 68.5969 38.0882C68.659 38.1013 68.7051 38.1459 68.7342 38.2207C69.7273 40.7777 69.3841 43.6322 67.8588 45.8606L64.2727 42.2745L68.3754 38.1718ZM67.3834 47.6068C66.0885 48.9017 64.4529 49.7459 62.6534 50.0484C62.642 50.0502 62.6308 50.0524 62.6196 50.0548C62.2694 50.1297 61.8891 50.2036 61.4864 50.282C58.9206 50.7812 55.7273 51.4024 53.7175 53.4121L38.7293 68.4006C37.4843 69.6456 35.4584 69.6456 34.2132 68.4005C32.9682 67.1554 32.9682 65.1296 34.2132 63.8845L49.2017 48.896C51.2115 46.8863 51.8327 43.6931 52.3318 41.1272C52.4102 40.7245 52.4842 40.3442 52.559 39.994C52.5615 39.9828 52.5636 39.9716 52.5656 39.9602C52.8678 38.1608 53.7121 36.5252 55.0071 35.2302C56.6795 33.5577 58.9195 32.6663 61.2012 32.6663C62.2659 32.6663 63.3401 32.8606 64.3693 33.2603C64.4629 33.2966 64.519 33.356 64.536 33.4367C64.5552 33.5278 64.5186 33.6276 64.4358 33.7104L59.5231 38.6231C59.2198 38.9264 59.2198 39.4183 59.5231 39.7217L67.3877 47.5863C67.3905 47.589 67.3929 47.5916 67.395 47.594C67.392 47.5979 67.3881 47.6021 67.3834 47.6068Z" fill="white"/>
<path d="M58.4243 40.8205C58.2786 40.6749 58.0811 40.593 57.8751 40.593C57.6691 40.593 57.4715 40.6749 57.3258 40.8205L55.1289 43.0176C54.8255 43.3209 54.8255 43.8128 55.1289 44.1162L58.2307 47.2181C58.3763 47.3637 58.574 47.4456 58.78 47.4456C58.986 47.4456 59.1836 47.3637 59.3292 47.2181L61.5263 45.021C61.8296 44.7177 61.8296 44.2259 61.5263 43.9224L58.4243 40.8205ZM58.7799 45.5702L56.7766 43.5668L57.8751 42.4683L59.8784 44.4716L58.7799 45.5702Z" fill="white"/>
<path d="M37.0204 65.5931C36.717 65.2897 36.2253 65.2901 35.922 65.5933C35.6187 65.8967 35.6188 66.3887 35.9222 66.6921C36.0739 66.8437 36.2726 66.9196 36.4714 66.9196C36.6702 66.9196 36.869 66.8437 37.0207 66.6921C37.324 66.3888 37.324 65.8969 37.0207 65.5935L37.0204 65.5931Z" fill="white"/>
<path d="M50.9105 50.6051L38.3938 63.1218C38.0904 63.4251 38.0904 63.917 38.3938 64.2204C38.5455 64.372 38.7442 64.4479 38.943 64.4479C39.1418 64.4479 39.3406 64.372 39.4923 64.2204L52.0091 51.7036C52.3124 51.4003 52.3124 50.9084 52.0091 50.605C51.7057 50.3017 51.214 50.3017 50.9105 50.6051Z" fill="white"/>
</g>
<defs>
<clipPath id="clip0_1_50621">
<rect width="39.7744" height="39.7744" fill="white" transform="translate(31.4006 31.1128)"/>
</clipPath>
</defs>
</svg>
